<svg width="732" height="239" viewBox="0 0 732 239" fill="none" xmlns="http://www.w3.org/2000/svg">
<!-- <path fill-rule="evenodd" clip-rule="evenodd" d="M732 36C732 55.8822 715.882 72 696 72C676.118 72 660 55.8822 660 36C660 16.1177 676.118 0 696 0C715.882 0 732 16.1177 732 36ZM732 86C732 105.775 715.977 122 696 122C676.124 122 660 105.775 660 86H732Z" fill="white"/> -->
<path fill-rule="evenodd" clip-rule="evenodd" d="M572 83C585.2 83 596.2 88.2 604 96.6V86H624V186H604V175.4C596.2 183.8 585.2 189 572 189C543.6 189 520 165.4 520 136C520 106.6 543.6 83 572 83ZM540 135.9C540 154.244 554.6 168.8 572 168.8C589.4 168.8 604 154.244 604 135.9C604 117.555 589.4 102.8 572 102.8C554.6 102.8 540 117.555 540 135.9Z" fill="white"/>
<path d="M480 65L460 72.2V96H420V65L400 72.2V144.8C400 169.4 419.4 189 444 189V169C431.8 169 422 159.6 420.4 149C420.2 147.4 420 144.2 420 140.8V114H460V144.8C460 169.4 479.4 189 504 189V169C491.8 169 481.8 159.6 480.4 149C480.2 147.4 480 144.2 480 140.8V114H510V96H480V65Z" fill="white"/>
<path fill-rule="evenodd" clip-rule="evenodd" d="M280 136C280 106.6 303.6 83 332 83C360.4 83 384 106.6 384 136C384 138.4 383.8 140.8 383.6 143H300.8C303.8 158 316.8 169 332 169C345.6 169 355.2 163.6 361 155.2L379.4 163.6C370.2 179 353.6 189 332 189C303.6 189 280 165.4 280 136ZM362.8 127C359 113 346.4 102.8 332 102.8C317.6 102.8 305 113 301.2 127H362.8Z" fill="white"/>
<path d="M220 83C206.8 83 196 87.6 188 96V86H168V186H188V136C188 131.6 188.6 126.4 189.6 123.2C193.4 111.2 203.6 102.8 217 102.8C234.8 102.8 246 116 246 136V186H266V136C266 104.2 248 83 220 83Z" fill="white"/>
<path fill-rule="evenodd" clip-rule="evenodd" d="M149 63C149 70.1797 143.18 76 136 76C128.82 76 123 70.1797 123 63C123 55.8203 128.82 50 136 50C143.18 50 149 55.8203 149 63ZM146 186V86H126V186H146Z" fill="white"/>
<path fill-rule="evenodd" clip-rule="evenodd" d="M52 83C65.2 83 76.2 88.2 84 96.6V86H104V186C104 215.4 80.4 239 52 239C29.6 239 10.2 224.2 3 203.8L21.8 197C26 209.8 38.2 219 52 219C67.6 219 80.4 207.4 83.2 193C83.8 189.8 84 182.8 84 180V175.4C76.2 183.8 65.2 189 52 189C23.6 189 0 165.4 0 136C0 106.6 23.6 83 52 83ZM20 136.1C20 154.444 34.6 169 52 169C69.4 169 84 154.444 84 136.1C84 117.755 69.4 103 52 103C34.6 103 20 117.755 20 136.1Z" fill="white"/>
</svg>
